{"title":"WWE.NXT.2016.05.11.720p.50fps.kx11","uid":14602217,"size":1575553749,"categoryP":"video","categoryS":"hd___tv_shows","magnet":"?xt=urn:btih:7091799c0a4a600927e8a7bb60dcfe63727990d3&amp;dn=WWE.NXT.2016.05.11.720p.50fps.kx11&amp;tr=udp%3A%2F%2Ftracker.leechers-paradise.org%3A6969&amp;tr=udp%3A%2F%2Fzer0day.ch%3A1337&amp;tr=udp%3A%2F%2Fopen.demonii.com%3A1337&amp;tr=udp%3A%2F%2Ftracker.coppersurfer.tk%3A6969&amp;tr=udp%3A%2F%2Fexodus.desync.com%3A6969","seeders":0,"leechers":0,"uploader":"kx11","files":1,"time":1463051012,"description":"\nFormat                      : QuickTime\r\nFormat/Info                 : Original Apple specifications\r\nFile size                   : 1.47 GiB\r\nDuration                    : 41mn 25s\r\nOverall bit rate mode       : Variable\r\nOverall bit rate            : 5 071 Kbps\r\nEncoded date                : UTC 2016-05-11 07:08:36\r\nTagged date                 : UTC 2016-05-11 07:08:36\r\nWriting library             : AVS \r\n\r\nVideo\r\nID                          : 1\r\nFormat                      : AVC\r\nFormat/Info                 : Advanced Video Codec\r\nFormat profile              :   \r\nFormat settings, CABAC      : Yes\r\nFormat settings, ReFrames   : 2 frames\r\nCodec ID                    : avc1\r\nCodec ID/Info               : Advanced Video Coding\r\nDuration                    : 41mn 25s\r\nBit rate                    : 4 519 Kbps\r\nWidth                       : 1 280 pixels\r\nHeight                      : 720 pixels\r\nDisplay aspect ratio        : 16:9\r\nFrame rate mode             : Constant\r\nFrame rate                  : 50.000 fps\r\nColor space                 : YUV\r\nChroma subsampling          : 4:2:0\r\nBit depth                   : 8 bits\r\nScan type                   : Progressive\r\nBits/(Pixel*Frame)          : 0.098\r\nStream size                 : 1.31 GiB (89%)\r\nLanguage                    : English\r\nEncoded date                : UTC 2016-05-11 07:08:36\r\nTagged date                 : UTC 2016-05-11 07:08:36\r\nColor primaries             : BT.709\r\nTransfer characteristics    : BT.709\r\nMatrix coefficients         : BT.709\r\n\r\nAudio\r\nID                          : 2\r\nFormat                      : ALAC\r\nCodec ID                    : alac\r\nCodec ID/Info               : Apple Lossless Audio Codec\r\nDuration                    : 41mn 25s\r\nSource duration             : 41mn 25s\r\nBit rate mode               : Variable\r\nBit rate                    : 546 Kbps\r\nChannel(s)                  : 2 channels\r\nChannel positions           : Front: L R\r\nSampling rate               : 48.0 KHz\r\nBit depth                   : 16 bits\r\nStream size                 : 162 MiB (11%)\r\nSource stream size          : 162 MiB (11%)\r\nLanguage                    : English\r\nEncoded date                : UTC 2016-05-11 07:08:36\r\nTagged date                 : UTC 2016-05-11 07:08:36\r\nmdhd_Duration               : 2485188","torrent":{"xt":"urn:btih:7091799c0a4a600927e8a7bb60dcfe63727990d3","amp;dn":"WWE.NXT.2016.05.11.720p.50fps.kx11","amp;tr":["udp%3A%2F%2Ftracker.leechers-paradise.org%3A6969","udp%3A%2F%2Fzer0day.ch%3A1337","udp%3A%2F%2Fopen.demonii.com%3A1337","udp%3A%2F%2Ftracker.coppersurfer.tk%3A6969","udp%3A%2F%2Fexodus.desync.com%3A6969"],"infoHash":"7091799c0a4a600927e8a7bb60dcfe63727990d3","infoHashBuffer":{"type":"Buffer","data":[112,145,121,156,10,74,96,9,39,232,167,187,96,220,254,99,114,121,144,211]},"announce":[],"urlList":[]}}